<svg xmlns="http://www.w3.org/2000/svg" width="512" height="512" preserveAspectRatio="none" style="display:block" viewBox="0 0 2048 2048" id="a0a414ee-9919-4c50-9b07-43973fc8653d">
  <path d="M 997.316 471.981 C 1421.66 454.815 1644.13 943.942 1373.39 1257.54 C 1306.31 1335.24 1241.26 1351.45 1240.92 1485 C 1260.86 1484.71 1297.71 1479.76 1297.97 1511.06 C 1298.24 1543.16 1263.3 1538.73 1240.92 1538.43 L 1240.92 1585.99 C 1271.41 1590.38 1284.72 1577.44 1300.8 1612.27 C 1288.35 1645.05 1270.36 1640.48 1240.92 1638.94 C 1237.75 1683.56 1200.38 1722.83 1155.54 1726.14 C 1150.64 1784.4 1106.05 1825.85 1051 1838.79 L 1049.6 1839.06 C 969.481 1854.07 904.302 1804.29 890.297 1726.14 C 850.329 1724.28 810.625 1678.81 809.006 1638.94 C 780.438 1638.7 758.441 1645.44 750.597 1612.27 C 759.016 1578.6 780.726 1586.38 809.006 1585.99 C 809.545 1571.06 809.058 1553.55 809.006 1538.43 C 797.953 1537.4 787.194 1538.06 776.153 1537.42 C 755.038 1536.13 743.33 1507.62 758.165 1492.43 C 769.152 1481.17 794.096 1484.91 809.006 1485 C 810.474 1387.47 778.662 1348.87 712.209 1291.07 C 491.266 1098.88 506.239 737.587 743.821 564.435 C 822.536 507.067 900.675 480.25 997.316 471.981 z"></path>
  <path fill="#FBD13F" d="M 857.942 1414.18 C 832.872 1325.06 804.567 1301.76 741.707 1244.63 C 631.139 1143.66 586.574 988.513 619.973 843.556 C 669.641 627.993 894.416 485.943 1110.2 534.758 C 1434.13 609.576 1552.31 1010.26 1310.26 1245.15 C 1252.28 1301.41 1216.73 1325.16 1196.01 1414.18 L 1115.36 1414.18 L 1115.36 1274.21 L 1115.36 1133.42 C 1150.08 1133.62 1189.37 1137.38 1214.58 1109.27 C 1327.85 982.986 1056.3 857.622 1062.25 1075.13 L 1062.44 1080.9 L 985.238 1080.9 C 985.562 1045.18 989.293 1010.93 960.695 984.4 C 872.38 902.478 750.13 1020.4 831.732 1109.7 C 857.349 1137.74 897.401 1133.58 932.697 1133.42 L 932.771 1383.73 C 932.799 1391.49 933.323 1406.82 932.697 1414.18 L 857.942 1414.18 z"></path>
  <path fill="#FDDE8F" d="M 857.942 1414.18 C 832.872 1325.06 804.567 1301.76 741.707 1244.63 C 631.139 1143.66 586.574 988.513 619.973 843.556 C 669.641 627.993 894.416 485.943 1110.2 534.758 C 1434.13 609.576 1552.31 1010.26 1310.26 1245.15 C 1252.28 1301.41 1216.73 1325.16 1196.01 1414.18 L 1115.36 1414.18 L 1115.36 1274.21 C 1130.92 1265.1 1147.31 1263.05 1163.32 1256.05 C 1286.22 1202.33 1359.63 1075.49 1359.77 943.291 C 1359.8 915.638 1351.03 888.655 1351.19 861.761 C 1320.66 726.648 1202.45 620.989 1065.94 601.83 C 1040.03 598.194 1014.88 598.804 988.844 598.971 C 976.353 599.81 952.852 605.162 940.126 608.101 C 924.076 613.322 893.494 622.887 879.093 631.127 C 868.753 634.742 844.402 649.249 836.146 655.985 C 734.866 717.023 681.72 833.365 682.847 949.031 C 687.23 949.081 691.531 949.161 695.916 949.031 C 695.595 1087.98 793.755 1242.63 932.697 1274.21 L 932.626 1367.56 C 932.617 1380.7 931.915 1401.59 932.697 1414.18 L 857.942 1414.18 z"></path>
  <path d="M988.844 598.971C1014.88 598.804 1040.03 598.194 1065.94 601.83 1202.45 620.989 1320.66 726.648 1351.19 861.761 1333.69 866.454 1318.18 870.531 1300.8 875.948 1269.38 735.945 1139.05 643.693 997.316 652.181 993.657 637.52 990.976 614.307 988.844 598.971zM836.146 655.985C847.704 670.206 856.92 683.024 867.057 698.307 785.262 761.352 731.635 839.868 737.754 949.031 719.705 948.954 700.83 948.595 682.847 949.031 681.72 833.365 734.866 717.023 836.146 655.985zM940.126 608.101C943.421 620.481 944.397 646.045 947.435 661.096 935.212 664.436 923.721 668.601 912.099 671.829 901.333 657.857 889.895 644.843 879.093 631.127 893.494 622.887 924.076 613.322 940.126 608.101z"></path>
  <path fill="#5DBDEF" d="M1008.78 1594.54 1188.41 1594.54C1188.64 1671.28 1178.13 1674.59 1108.01 1674.56L1043.25 1674.48 917.144 1674.68C856.49 1674.95 860.761 1640.82 861.161 1594.54L1008.78 1594.54zM861.161 1467.18 1188.41 1467.18C1188.32 1490.42 1189.41 1517.8 1188.41 1540.56L861.161 1540.56 861.161 1467.18z"></path>
  <path fill="#FBD13F" d="M 985.238 1133.42 C 1007.89 1132.37 1039.12 1133.39 1062.44 1133.42 L 1062.44 1414.18 L 985.238 1414.18 L 985.238 1133.42 z"></path>
  <path fill="#03588D" d="M 943.685 1728.27 C 996.008 1728.28 1049.24 1727.72 1101.48 1728.27 C 1095.19 1746.83 1091.59 1753.2 1078.12 1767.25 C 1031.7 1806.13 956.603 1790.66 943.685 1728.27 z"></path>
  <path fill="#F9F9E0" d="M890.297 1010.36C934.767 1003.94 933.518 1050.99 932.697 1080.9 922.012 1081.37 911.888 1081.1 901.21 1080.9 843.041 1082.52 845.332 1020.6 890.297 1010.36zM1148.55 1010.36C1194.58 1012.56 1203.4 1070.87 1155.54 1080.9 1140.05 1081.91 1130.59 1081.88 1115.36 1080.9 1114.94 1050.53 1110.63 1016.19 1148.55 1010.36z"></path>
  <path d="M1017.37 189.146C1037.87 187.581 1050.75 199.334 1050.83 219.729 1051 262.947 1051.44 306.289 1050.83 349.498 1050.62 364.245 1043.42 371.99 1029.65 376.31 1010.62 380.861 998.54 365.016 997.448 348.2 996.37 331.586 997.009 210.956 999.525 204.438 1002.79 195.992 1009.63 192.604 1017.37 189.146zM525.043 403.159C529.393 402.23 533.993 401.194 538.368 402.581 547.721 405.547 641.692 500.448 646.231 511.034 653.088 527.021 641.47 541.936 627.109 547.685 601.019 550.247 588.03 526.048 571.23 509.063L532.537 470.256C515.329 453.013 477.462 411.483 525.043 403.159zM320.801 905.012C358.991 901.944 413.663 904.286 452.101 905.341 483.317 906.199 489.971 952.047 455.42 958.51L368.827 958.552C354.468 958.614 335.846 959.591 321.861 958.35 288.85 955.422 283.082 912.027 320.801 905.012zM1597.22 905.012 1683.3 904.926C1699.04 904.928 1714.66 904.379 1730.47 905.827 1762.85 908.791 1766.03 955.12 1727.95 958.51L1640.77 958.546C1609.28 958.552 1578.44 967.913 1570.97 930.213 1576.04 915.184 1580.77 907.959 1597.22 905.012zM609.28 1322.15C634.142 1319.23 644.798 1334.66 642.793 1357.71 634.356 1371.26 541.624 1460.31 532.994 1463.62 512.691 1469.61 491.757 1448.48 500.48 1428.19 505.395 1416.75 591.067 1329.09 609.28 1322.15zM1423.83 1322.15C1451.51 1320.97 1540.22 1422.62 1542.9 1431.16 1547.94 1447.27 1535.67 1461.48 1521.48 1467.18 1494.98 1464.79 1430.93 1389.98 1411.44 1369.04 1394.89 1351.27 1398.94 1330.14 1423.83 1322.15zM1521.48 403.159C1538.8 400.615 1554.6 429.341 1542.72 442.479 1527.09 459.773 1456.56 539.479 1438.19 542.74 1401.72 546.687 1399.26 511.713 1426.73 484.814 1450.02 462.001 1492.73 408.646 1521.48 403.159z"></path>
</svg>
